<svg fill="#fffffff" id="ATAWA_LOGO_VECTOR" data-name="ATAWA LOGO VECTOR" xmlns="http://www.w3.org/2000/svg"
     viewBox="0 0 565 110">
    <title>logo-white-head2</title>
    <g id="LOGO">
        <g id="Typo">
            <path id="A" class="cls-1"
                  d="M610.78,234.08h-1.26l-32.65,65h3.33l11.5-22.85h36.78l11.42,22.85h3.36ZM593.2,273.23l16.95-33.71L627,273.23Z"
                  transform="translate(-77.8 -208.24)"/>
            <g id="W">
                <polygon class="cls-1"
                         points="422.62 90.83 446.06 32.47 469.5 90.83 470.54 90.83 470.54 90.83 498.82 25.84 495.55 25.84 470.12 84.31 446.63 25.84 445.49 25.84 422.03 84.25 397.44 25.86 394.18 25.84 421.54 90.83 422.62 90.83"/>
            </g>
            <path id="A-2" data-name="A" class="cls-1"
                  d="M438.59,234.08h-1.27l-32.65,65H408l11.5-22.85h36.78l11.42,22.85h3.36ZM421,273.23,438,239.52l16.83,33.71Z"
                  transform="translate(-77.8 -208.24)"/>
            <polygon id="T" class="cls-1"
                     points="324.24 25.76 269.24 25.76 269.24 28.76 295.24 28.76 295.24 90.76 298.24 90.76 298.24 28.76 324.24 28.76 324.24 25.76"/>
            <path id="A-3" data-name="A" class="cls-1"
                  d="M313.59,234.08h-1.27l-32.65,65H283l11.5-22.85h36.78l11.42,22.85h3.37ZM296,273.23,313,239.52l16.83,33.71Z"
                  transform="translate(-77.8 -208.24)"/>
        </g>
        <path id="Icone" class="cls-1"
              d="M187.25,208.24l-22.84,42-22.85-42L77.8,318h8.11l55.33-95.19,19.21,36.5L126.62,325h75.57l-33.83-65.76,19.22-36.33L242.79,318h8.1ZM138.21,318l26.19-49.65L190.6,318Z"
              transform="translate(-77.8 -208.24)"/>
    </g>
</svg>